<svg xmlns="http://www.w3.org/2000/svg" width="520" height="124.04" viewBox="0 0 520 124.04">
  <path id="路径_203" data-name="路径 203" d="M86.166,67.852C63.609,58.538,49.431,46.751,44.1,36.263c-3.809-7.541-3.513-14.858.931-21.051C50.151,8.12,59.969,2.951,74.528.879c20.356-2.922,52.013,1.274,93.953,18.1,5.332,2.148,14.982,6.118,24.462,10.038,11.215,4.62,22.092,9.115,31.275,12.86,9.776-5.668,23.15-9.189,37.92-9.189,16.167,0,30.641,4.2,40.544,10.813,9.945-4.045,22.388-9.189,35.254-14.508,9.48-3.921,19.171-7.916,24.462-10.038,41.9-16.831,73.6-21.026,93.953-18.1,14.558,2.1,24.377,7.242,29.5,14.334,4.444,6.193,4.74,13.534.931,21.051-5.332,10.488-19.51,22.274-42.067,31.589H501.76c10.03,0,18.24,4.495,18.24,9.989v36.233c0,5.494-8.21,9.989-18.24,9.989H18.24C8.21,124.037,0,119.543,0,114.049V77.84c0-5.494,8.21-9.989,18.24-9.989ZM362.438,49.673c-10.877,4.495-21.584,8.89-31.7,12.81,9.692-.449,20.7-1.274,32.164-2.6,6.094-.7,12.062-1.5,17.648-2.422,5.5-.9,11.13-1.973,16.844-3.271l.085-.025c27.8-6.293,43.972-16.656,48.288-25.146.973-1.9,1.227-3.3.762-3.97-.042-.025-.042-.05-.042-.05v.025c0,.075.085.35-.127.325-9.9-1.423-29.2,2.173-59.757,14.458-10.877,4.37-17.563,7.142-24.165,9.864Zm84.05-24.647ZM200.221,62.483c-10.157-3.9-20.822-8.315-31.7-12.81-6.6-2.722-13.331-5.494-24.123-9.839C113.844,27.548,94.545,23.952,84.642,25.376c-.212.025-.127-.25-.127-.325h0l-.042.05c-.466.674-.212,2.048.762,3.97,4.317,8.49,20.483,18.853,48.288,25.146l.085.025c5.713,1.3,11.384,2.372,16.844,3.271,5.629.924,11.554,1.723,17.648,2.422,11.427,1.249,22.43,2.1,32.122,2.547Z" transform="translate(0 0.003)" fill="#0d0e0f" fill-rule="evenodd"/>
</svg>
