<svg xmlns="http://www.w3.org/2000/svg" width="112" height="91" viewBox="0 0 112 91">
  <g id="组_203" data-name="组 203" transform="translate(-475 -463)">
    <g id="组_202" data-name="组 202" transform="translate(475 462.647)">
      <g id="椭圆_32" data-name="椭圆 32" transform="translate(0 0.352)" fill="#fff" stroke="#0d0e0f" stroke-width="1">
        <circle cx="33" cy="33" r="33" stroke="none"/>
        <circle cx="33" cy="33" r="32.5" fill="none"/>
      </g>
      <g id="组_200" data-name="组 200" transform="translate(11.006 7.705)">
        <path id="Path" d="M-1.685-10a1.269,1.269,0,0,1,.631.168L33.557,9.975a1.27,1.27,0,0,1,.639,1.1v7.9a1.27,1.27,0,0,1-.631,1.1L-1.046,40.227a1.27,1.27,0,0,1-1.282,0l-7.045-4.137a1.27,1.27,0,0,1-.627-1.1V-4.784a1.27,1.27,0,0,1,.649-1.108l7.045-3.946A1.269,1.269,0,0,1-1.685-10ZM31.657,11.814-1.692-7.271-7.46-4.04V34.266l5.778,3.393L31.657,18.247Z" transform="translate(10 10)" fill="#246cad"/>
        <path id="Path_2" data-name="Path 2" d="M-8.73,24.136a1.269,1.269,0,0,1-.643-.175,1.27,1.27,0,0,1-.627-1.1V-8.73A1.27,1.27,0,0,1-8.73-10,1.27,1.27,0,0,1-7.46-8.73V20.7L2.59,15.092l-4.958-2.81a1.27,1.27,0,0,1-.644-1.1V3.116a1.27,1.27,0,0,1,.634-1.1,1.27,1.27,0,0,1,1.269,0L26.514,17.876a1.27,1.27,0,0,1-1.265,2.2L-.472,5.309v5.128L5.806,14A1.27,1.27,0,0,1,5.8,16.209l-13.91,7.766A1.269,1.269,0,0,1-8.73,24.136Z" transform="translate(17.045 10)" fill="#246cad"/>
        <path id="Path_3" data-name="Path 3" d="M-8.73,12.431a1.269,1.269,0,0,1-1.1-.631,1.27,1.27,0,0,1,.458-1.737L16.081-4.772l-4.89-2.864a1.27,1.27,0,0,1-.454-1.738,1.27,1.27,0,0,1,1.738-.454L19.24-5.865a1.27,1.27,0,0,1,.628,1.1,1.27,1.27,0,0,1-.63,1.1l-27.33,15.93A1.264,1.264,0,0,1-8.73,12.431Z" transform="translate(10.303 33.832)" fill="#246cad"/>
        <path id="Path_4" data-name="Path 4" d="M-7.93,1.282A1.27,1.27,0,0,1-9.2.012V-7.735A1.27,1.27,0,0,1-7.93-9a1.27,1.27,0,0,1,1.27,1.27V.012A1.27,1.27,0,0,1-7.93,1.282Z" transform="translate(23.241 28.739)" fill="#246cad"/>
      </g>
    </g>
    <g id="组_201" data-name="组 201" transform="translate(521.227 487.962)">
      <g id="椭圆_31" data-name="椭圆 31" transform="translate(-0.227 0.038)" fill="#fff" stroke="#0d0e0f" stroke-width="1">
        <circle cx="33" cy="33" r="33" stroke="none"/>
        <circle cx="33" cy="33" r="32.5" fill="none"/>
      </g>
      <g id="Layer_2" data-name="Layer 2" transform="translate(3.615 3.615)">
        <g id="Layer_1" data-name="Layer 1">
          <path id="路径_33" data-name="路径 33" d="M17.983,24.712,29.4,13.291,40.83,24.717l6.645-6.645L29.4,0,11.338,18.066l6.645,6.645M0,29.4l6.646-6.646L13.291,29.4,6.645,36.048ZM17.983,34.1,29.4,45.517,40.83,34.092l6.649,6.642,0,0L29.4,58.808,11.338,40.742l-.009-.009L17.984,34.1m27.534-4.69,6.646-6.646,6.645,6.645-6.645,6.646Z" fill="#f3ba2f"/>
          <path id="路径_34" data-name="路径 34" d="M978.208,970.7h0L970.7,963.19l-5.55,5.548h0l-.638.638-1.315,1.315-.01.01.01.011,7.5,7.5,7.509-7.509,0,0-.007,0" transform="translate(-941.299 -941.299)" fill="#f3ba2f"/>
        </g>
      </g>
    </g>
  </g>
</svg>
